# xmcd
#
# Track frame offsets: 
#        300
#        20878
#        43316
#        74433
#        90190
#        131030
#        145746
#        168637
#        185818
#        203043
#        227015
#        240936
#
# Disc length: 3675 seconds
#
# Revision: 0
# Processed by: cddbd v1.5.2PL0 Copyright (c) Steve Scherf et al.
# Submitted via: ExactAudioCopyFreeDBPlugin 1.0
#
DISCID=ac0e570c
DTITLE=Greensky Bluegrass - All for Money
DYEAR=2019
DGENRE=Bluegrass
TTITLE0=Do It Alone
TTITLE1=Murder of Crows
TTITLE2=What You Need
TTITLE3=Ashes
TTITLE4=Courage for the Road
TTITLE5=Collateral Damage
TTITLE6=Like Reflection
TTITLE7=Cathedral Eyes
TTITLE8=Wish I Didn't Know
TTITLE9=It's Not Mine Anymore
TTITLE10=Do Harm
TTITLE11=All for Money
EXTD=
EXTT0=
EXTT1=
EXTT2=
EXTT3=
EXTT4=
EXTT5=
EXTT6=
EXTT7=
EXTT8=
EXTT9=
EXTT10=
EXTT11=
PLAYORDER=
